<mxfile host="65bd71144e">
    <diagram name="PÃ¡gina-1" id="ZdF03Z52H1XM9VRPm6Jc">
        <mxGraphModel dx="1219" dy="779" grid="1" gridSize="10" guides="1" tooltips="1" connect="1" arrows="1" fold="1" page="1" pageScale="1" pageWidth="827" pageHeight="1169" math="0" shadow="0">
            <root>
                <mxCell id="0"/>
                <mxCell id="1" parent="0"/>
                <mxCell id="Oh0gTr4Zauj4b9k2Pe7N-1" value="USER" style="swimlane;fontStyle=0;childLayout=stackLayout;horizontal=1;startSize=26;fillColor=none;horizontalStack=0;resizeParent=1;resizeParentMax=0;resizeLast=0;collapsible=1;marginBottom=0;whiteSpace=wrap;html=1;" parent="1" vertex="1">
                    <mxGeometry x="50" y="140" width="170" height="240" as="geometry"/>
                </mxCell>
                <mxCell id="Oh0gTr4Zauj4b9k2Pe7N-2" value="id: int autoincrement" style="text;strokeColor=none;fillColor=none;align=left;verticalAlign=top;spacingLeft=4;spacingRight=4;overflow=hidden;rotatable=0;points=[[0,0.5],[1,0.5]];portConstraint=eastwest;whiteSpace=wrap;html=1;" parent="Oh0gTr4Zauj4b9k2Pe7N-1" vertex="1">
                    <mxGeometry y="26" width="170" height="26" as="geometry"/>
                </mxCell>
                <mxCell id="Oh0gTr4Zauj4b9k2Pe7N-3" value="name: varchar 250" style="text;strokeColor=none;fillColor=none;align=left;verticalAlign=top;spacingLeft=4;spacingRight=4;overflow=hidden;rotatable=0;points=[[0,0.5],[1,0.5]];portConstraint=eastwest;whiteSpace=wrap;html=1;" parent="Oh0gTr4Zauj4b9k2Pe7N-1" vertex="1">
                    <mxGeometry y="52" width="170" height="26" as="geometry"/>
                </mxCell>
                <mxCell id="Oh0gTr4Zauj4b9k2Pe7N-4" value="surname: varchar 250" style="text;strokeColor=none;fillColor=none;align=left;verticalAlign=top;spacingLeft=4;spacingRight=4;overflow=hidden;rotatable=0;points=[[0,0.5],[1,0.5]];portConstraint=eastwest;whiteSpace=wrap;html=1;" parent="Oh0gTr4Zauj4b9k2Pe7N-1" vertex="1">
                    <mxGeometry y="78" width="170" height="162" as="geometry"/>
                </mxCell>
                <mxCell id="Oh0gTr4Zauj4b9k2Pe7N-26" value="created: timestamptz&lt;div&gt;&lt;span style=&quot;color: rgba(0, 0, 0, 0); font-family: monospace; font-size: 0px; text-wrap: nowrap;&quot;&gt;%3CmxGraphModel%3E%3Croot%3E%3CmxCell%20id%3D%220%22%2F%3E%3CmxCell%20id%3D%221%22%20parent%3D%220%22%2F%3E%3CmxCell%20id%3D%222%22%20value%3D%22%2B%20field%3A%20type%22%20style%3D%22text%3BstrokeColor%3Dnone%3BfillColor%3Dnone%3Balign%3Dleft%3BverticalAlign%3Dtop%3BspacingLeft%3D4%3BspacingRight%3D4%3Boverflow%3Dhidden%3Brotatable%3D0%3Bpoints%3D%5B%5B0%2C0.5%5D%2C%5B1%2C0.5%5D%5D%3BportConstraint%3Deastwest%3BwhiteSpace%3Dwrap%3Bhtml%3D1%3B%22%20vertex%3D%221%22%20parent%3D%221%22%3E%3CmxGeometry%20x%3D%2290%22%20y%3D%22338%22%20width%3D%22140%22%20height%3D%2226%22%20as%3D%22geometry%22%2F%3E%3C%2FmxCell%3E%3C%2Froot%3E%3C%2FmxGraphModel%3E&lt;/span&gt;&lt;br&gt;&lt;/div&gt;" style="text;strokeColor=none;fillColor=none;align=left;verticalAlign=top;spacingLeft=4;spacingRight=4;overflow=hidden;rotatable=0;points=[[0,0.5],[1,0.5]];portConstraint=eastwest;whiteSpace=wrap;html=1;" parent="1" vertex="1">
                    <mxGeometry x="50" y="320" width="170" height="26" as="geometry"/>
                </mxCell>
                <mxCell id="Oh0gTr4Zauj4b9k2Pe7N-27" value="paswd: varhcar&amp;nbsp;" style="text;strokeColor=none;fillColor=none;align=left;verticalAlign=top;spacingLeft=4;spacingRight=4;overflow=hidden;rotatable=0;points=[[0,0.5],[1,0.5]];portConstraint=eastwest;whiteSpace=wrap;html=1;" parent="1" vertex="1">
                    <mxGeometry x="50" y="296" width="170" height="26" as="geometry"/>
                </mxCell>
                <mxCell id="Oh0gTr4Zauj4b9k2Pe7N-28" value="birthday: date" style="text;strokeColor=none;fillColor=none;align=left;verticalAlign=top;spacingLeft=4;spacingRight=4;overflow=hidden;rotatable=0;points=[[0,0.5],[1,0.5]];portConstraint=eastwest;whiteSpace=wrap;html=1;" parent="1" vertex="1">
                    <mxGeometry x="50" y="270" width="170" height="26" as="geometry"/>
                </mxCell>
                <mxCell id="Oh0gTr4Zauj4b9k2Pe7N-29" value="email : varchar 250" style="text;strokeColor=none;fillColor=none;align=left;verticalAlign=top;spacingLeft=4;spacingRight=4;overflow=hidden;rotatable=0;points=[[0,0.5],[1,0.5]];portConstraint=eastwest;whiteSpace=wrap;html=1;" parent="1" vertex="1">
                    <mxGeometry x="50" y="244" width="170" height="26" as="geometry"/>
                </mxCell>
                <mxCell id="Oh0gTr4Zauj4b9k2Pe7N-30" value="updated:: timestamptz" style="text;strokeColor=none;fillColor=none;align=left;verticalAlign=top;spacingLeft=4;spacingRight=4;overflow=hidden;rotatable=0;points=[[0,0.5],[1,0.5]];portConstraint=eastwest;whiteSpace=wrap;html=1;" parent="1" vertex="1">
                    <mxGeometry x="50" y="350" width="170" height="26" as="geometry"/>
                </mxCell>
                <mxCell id="Oh0gTr4Zauj4b9k2Pe7N-31" value="CREWS" style="swimlane;fontStyle=0;childLayout=stackLayout;horizontal=1;startSize=26;fillColor=none;horizontalStack=0;resizeParent=1;resizeParentMax=0;resizeLast=0;collapsible=1;marginBottom=0;whiteSpace=wrap;html=1;" parent="1" vertex="1">
                    <mxGeometry x="310" y="108" width="170" height="240" as="geometry"/>
                </mxCell>
                <mxCell id="Oh0gTr4Zauj4b9k2Pe7N-32" value="id: int autoincrement pk" style="text;strokeColor=none;fillColor=none;align=left;verticalAlign=top;spacingLeft=4;spacingRight=4;overflow=hidden;rotatable=0;points=[[0,0.5],[1,0.5]];portConstraint=eastwest;whiteSpace=wrap;html=1;" parent="Oh0gTr4Zauj4b9k2Pe7N-31" vertex="1">
                    <mxGeometry y="26" width="170" height="26" as="geometry"/>
                </mxCell>
                <mxCell id="Oh0gTr4Zauj4b9k2Pe7N-33" value="name: varchar 250" style="text;strokeColor=none;fillColor=none;align=left;verticalAlign=top;spacingLeft=4;spacingRight=4;overflow=hidden;rotatable=0;points=[[0,0.5],[1,0.5]];portConstraint=eastwest;whiteSpace=wrap;html=1;" parent="Oh0gTr4Zauj4b9k2Pe7N-31" vertex="1">
                    <mxGeometry y="52" width="170" height="26" as="geometry"/>
                </mxCell>
                <mxCell id="Oh0gTr4Zauj4b9k2Pe7N-34" value="color: varchar 250" style="text;strokeColor=none;fillColor=none;align=left;verticalAlign=top;spacingLeft=4;spacingRight=4;overflow=hidden;rotatable=0;points=[[0,0.5],[1,0.5]];portConstraint=eastwest;whiteSpace=wrap;html=1;" parent="Oh0gTr4Zauj4b9k2Pe7N-31" vertex="1">
                    <mxGeometry y="78" width="170" height="162" as="geometry"/>
                </mxCell>
                <mxCell id="Oh0gTr4Zauj4b9k2Pe7N-35" value="created: timestamptz&lt;div&gt;&lt;span style=&quot;color: rgba(0, 0, 0, 0); font-family: monospace; font-size: 0px; text-wrap: nowrap;&quot;&gt;%3CmxGraphModel%3E%3Croot%3E%3CmxCell%20id%3D%220%22%2F%3E%3CmxCell%20id%3D%221%22%20parent%3D%220%22%2F%3E%3CmxCell%20id%3D%222%22%20value%3D%22%2B%20field%3A%20type%22%20style%3D%22text%3BstrokeColor%3Dnone%3BfillColor%3Dnone%3Balign%3Dleft%3BverticalAlign%3Dtop%3BspacingLeft%3D4%3BspacingRight%3D4%3Boverflow%3Dhidden%3Brotatable%3D0%3Bpoints%3D%5B%5B0%2C0.5%5D%2C%5B1%2C0.5%5D%5D%3BportConstraint%3Deastwest%3BwhiteSpace%3Dwrap%3Bhtml%3D1%3B%22%20vertex%3D%221%22%20parent%3D%221%22%3E%3CmxGeometry%20x%3D%2290%22%20y%3D%22338%22%20width%3D%22140%22%20height%3D%2226%22%20as%3D%22geometry%22%2F%3E%3C%2FmxCell%3E%3C%2Froot%3E%3C%2FmxGraphModel%3E&lt;/span&gt;&lt;br&gt;&lt;/div&gt;" style="text;strokeColor=none;fillColor=none;align=left;verticalAlign=top;spacingLeft=4;spacingRight=4;overflow=hidden;rotatable=0;points=[[0,0.5],[1,0.5]];portConstraint=eastwest;whiteSpace=wrap;html=1;" parent="1" vertex="1">
                    <mxGeometry x="310" y="288" width="170" height="26" as="geometry"/>
                </mxCell>
                <mxCell id="Oh0gTr4Zauj4b9k2Pe7N-36" value="foundation: date" style="text;strokeColor=none;fillColor=none;align=left;verticalAlign=top;spacingLeft=4;spacingRight=4;overflow=hidden;rotatable=0;points=[[0,0.5],[1,0.5]];portConstraint=eastwest;whiteSpace=wrap;html=1;" parent="1" vertex="1">
                    <mxGeometry x="310" y="264" width="170" height="26" as="geometry"/>
                </mxCell>
                <mxCell id="Oh0gTr4Zauj4b9k2Pe7N-37" value="capacity: integer" style="text;strokeColor=none;fillColor=none;align=left;verticalAlign=top;spacingLeft=4;spacingRight=4;overflow=hidden;rotatable=0;points=[[0,0.5],[1,0.5]];portConstraint=eastwest;whiteSpace=wrap;html=1;" parent="1" vertex="1">
                    <mxGeometry x="310" y="238" width="170" height="26" as="geometry"/>
                </mxCell>
                <mxCell id="Oh0gTr4Zauj4b9k2Pe7N-38" value="slogan: varchar 250" style="text;strokeColor=none;fillColor=none;align=left;verticalAlign=top;spacingLeft=4;spacingRight=4;overflow=hidden;rotatable=0;points=[[0,0.5],[1,0.5]];portConstraint=eastwest;whiteSpace=wrap;html=1;" parent="1" vertex="1">
                    <mxGeometry x="310" y="212" width="170" height="26" as="geometry"/>
                </mxCell>
                <mxCell id="Oh0gTr4Zauj4b9k2Pe7N-39" value="updated:: timestamptz" style="text;strokeColor=none;fillColor=none;align=left;verticalAlign=top;spacingLeft=4;spacingRight=4;overflow=hidden;rotatable=0;points=[[0,0.5],[1,0.5]];portConstraint=eastwest;whiteSpace=wrap;html=1;" parent="1" vertex="1">
                    <mxGeometry x="310" y="318" width="170" height="26" as="geometry"/>
                </mxCell>
                <mxCell id="2" value="Classname" style="swimlane;fontStyle=0;childLayout=stackLayout;horizontal=1;startSize=26;fillColor=none;horizontalStack=0;resizeParent=1;resizeParentMax=0;resizeLast=0;collapsible=1;marginBottom=0;whiteSpace=wrap;html=1;" vertex="1" parent="1">
                    <mxGeometry x="50" y="140" width="170" height="240" as="geometry"/>
                </mxCell>
                <mxCell id="3" value="id: int autoincrement" style="text;strokeColor=none;fillColor=none;align=left;verticalAlign=top;spacingLeft=4;spacingRight=4;overflow=hidden;rotatable=0;points=[[0,0.5],[1,0.5]];portConstraint=eastwest;whiteSpace=wrap;html=1;" vertex="1" parent="2">
                    <mxGeometry y="26" width="170" height="26" as="geometry"/>
                </mxCell>
                <mxCell id="4" value="name: varchar 250" style="text;strokeColor=none;fillColor=none;align=left;verticalAlign=top;spacingLeft=4;spacingRight=4;overflow=hidden;rotatable=0;points=[[0,0.5],[1,0.5]];portConstraint=eastwest;whiteSpace=wrap;html=1;" vertex="1" parent="2">
                    <mxGeometry y="52" width="170" height="26" as="geometry"/>
                </mxCell>
                <mxCell id="5" value="surname: varchar 250" style="text;strokeColor=none;fillColor=none;align=left;verticalAlign=top;spacingLeft=4;spacingRight=4;overflow=hidden;rotatable=0;points=[[0,0.5],[1,0.5]];portConstraint=eastwest;whiteSpace=wrap;html=1;" vertex="1" parent="2">
                    <mxGeometry y="78" width="170" height="162" as="geometry"/>
                </mxCell>
                <mxCell id="6" value="created: timestamptz&lt;div&gt;&lt;span style=&quot;color: rgba(0, 0, 0, 0); font-family: monospace; font-size: 0px; text-wrap: nowrap;&quot;&gt;%3CmxGraphModel%3E%3Croot%3E%3CmxCell%20id%3D%220%22%2F%3E%3CmxCell%20id%3D%221%22%20parent%3D%220%22%2F%3E%3CmxCell%20id%3D%222%22%20value%3D%22%2B%20field%3A%20type%22%20style%3D%22text%3BstrokeColor%3Dnone%3BfillColor%3Dnone%3Balign%3Dleft%3BverticalAlign%3Dtop%3BspacingLeft%3D4%3BspacingRight%3D4%3Boverflow%3Dhidden%3Brotatable%3D0%3Bpoints%3D%5B%5B0%2C0.5%5D%2C%5B1%2C0.5%5D%5D%3BportConstraint%3Deastwest%3BwhiteSpace%3Dwrap%3Bhtml%3D1%3B%22%20vertex%3D%221%22%20parent%3D%221%22%3E%3CmxGeometry%20x%3D%2290%22%20y%3D%22338%22%20width%3D%22140%22%20height%3D%2226%22%20as%3D%22geometry%22%2F%3E%3C%2FmxCell%3E%3C%2Froot%3E%3C%2FmxGraphModel%3E&lt;/span&gt;&lt;br&gt;&lt;/div&gt;" style="text;strokeColor=none;fillColor=none;align=left;verticalAlign=top;spacingLeft=4;spacingRight=4;overflow=hidden;rotatable=0;points=[[0,0.5],[1,0.5]];portConstraint=eastwest;whiteSpace=wrap;html=1;" vertex="1" parent="1">
                    <mxGeometry x="50" y="320" width="170" height="26" as="geometry"/>
                </mxCell>
                <mxCell id="7" value="paswd: varhcar&amp;nbsp;" style="text;strokeColor=none;fillColor=none;align=left;verticalAlign=top;spacingLeft=4;spacingRight=4;overflow=hidden;rotatable=0;points=[[0,0.5],[1,0.5]];portConstraint=eastwest;whiteSpace=wrap;html=1;" vertex="1" parent="1">
                    <mxGeometry x="50" y="296" width="170" height="26" as="geometry"/>
                </mxCell>
                <mxCell id="8" value="birthday: date" style="text;strokeColor=none;fillColor=none;align=left;verticalAlign=top;spacingLeft=4;spacingRight=4;overflow=hidden;rotatable=0;points=[[0,0.5],[1,0.5]];portConstraint=eastwest;whiteSpace=wrap;html=1;" vertex="1" parent="1">
                    <mxGeometry x="50" y="270" width="170" height="26" as="geometry"/>
                </mxCell>
                <mxCell id="9" value="email : varchar 250" style="text;strokeColor=none;fillColor=none;align=left;verticalAlign=top;spacingLeft=4;spacingRight=4;overflow=hidden;rotatable=0;points=[[0,0.5],[1,0.5]];portConstraint=eastwest;whiteSpace=wrap;html=1;" vertex="1" parent="1">
                    <mxGeometry x="50" y="244" width="170" height="26" as="geometry"/>
                </mxCell>
                <mxCell id="10" value="updated:: timestamptz" style="text;strokeColor=none;fillColor=none;align=left;verticalAlign=top;spacingLeft=4;spacingRight=4;overflow=hidden;rotatable=0;points=[[0,0.5],[1,0.5]];portConstraint=eastwest;whiteSpace=wrap;html=1;" vertex="1" parent="1">
                    <mxGeometry x="50" y="350" width="170" height="26" as="geometry"/>
                </mxCell>
                <mxCell id="11" value="PLATFORMS" style="swimlane;fontStyle=0;childLayout=stackLayout;horizontal=1;startSize=26;fillColor=none;horizontalStack=0;resizeParent=1;resizeParentMax=0;resizeLast=0;collapsible=1;marginBottom=0;whiteSpace=wrap;html=1;" vertex="1" parent="1">
                    <mxGeometry x="590" y="110" width="170" height="212" as="geometry"/>
                </mxCell>
                <mxCell id="12" value="id: int autoincrement pk" style="text;strokeColor=none;fillColor=none;align=left;verticalAlign=top;spacingLeft=4;spacingRight=4;overflow=hidden;rotatable=0;points=[[0,0.5],[1,0.5]];portConstraint=eastwest;whiteSpace=wrap;html=1;" vertex="1" parent="11">
                    <mxGeometry y="26" width="170" height="26" as="geometry"/>
                </mxCell>
                <mxCell id="13" value="color: text" style="text;strokeColor=none;fillColor=none;align=left;verticalAlign=top;spacingLeft=4;spacingRight=4;overflow=hidden;rotatable=0;points=[[0,0.5],[1,0.5]];portConstraint=eastwest;whiteSpace=wrap;html=1;" vertex="1" parent="11">
                    <mxGeometry y="52" width="170" height="26" as="geometry"/>
                </mxCell>
                <mxCell id="14" value="heigth: int" style="text;strokeColor=none;fillColor=none;align=left;verticalAlign=top;spacingLeft=4;spacingRight=4;overflow=hidden;rotatable=0;points=[[0,0.5],[1,0.5]];portConstraint=eastwest;whiteSpace=wrap;html=1;" vertex="1" parent="11">
                    <mxGeometry y="78" width="170" height="82" as="geometry"/>
                </mxCell>
                <mxCell id="19" value="updated:: timestamptz" style="text;strokeColor=none;fillColor=none;align=left;verticalAlign=top;spacingLeft=4;spacingRight=4;overflow=hidden;rotatable=0;points=[[0,0.5],[1,0.5]];portConstraint=eastwest;whiteSpace=wrap;html=1;" vertex="1" parent="11">
                    <mxGeometry y="160" width="170" height="26" as="geometry"/>
                </mxCell>
                <mxCell id="15" value="created: timestamptz&lt;div&gt;&lt;span style=&quot;color: rgba(0, 0, 0, 0); font-family: monospace; font-size: 0px; text-wrap: nowrap;&quot;&gt;%3CmxGraphModel%3E%3Croot%3E%3CmxCell%20id%3D%220%22%2F%3E%3CmxCell%20id%3D%221%22%20parent%3D%220%22%2F%3E%3CmxCell%20id%3D%222%22%20value%3D%22%2B%20field%3A%20type%22%20style%3D%22text%3BstrokeColor%3Dnone%3BfillColor%3Dnone%3Balign%3Dleft%3BverticalAlign%3Dtop%3BspacingLeft%3D4%3BspacingRight%3D4%3Boverflow%3Dhidden%3Brotatable%3D0%3Bpoints%3D%5B%5B0%2C0.5%5D%2C%5B1%2C0.5%5D%5D%3BportConstraint%3Deastwest%3BwhiteSpace%3Dwrap%3Bhtml%3D1%3B%22%20vertex%3D%221%22%20parent%3D%221%22%3E%3CmxGeometry%20x%3D%2290%22%20y%3D%22338%22%20width%3D%22140%22%20height%3D%2226%22%20as%3D%22geometry%22%2F%3E%3C%2FmxCell%3E%3C%2Froot%3E%3C%2FmxGraphModel%3E&lt;/span&gt;&lt;br&gt;&lt;/div&gt;" style="text;strokeColor=none;fillColor=none;align=left;verticalAlign=top;spacingLeft=4;spacingRight=4;overflow=hidden;rotatable=0;points=[[0,0.5],[1,0.5]];portConstraint=eastwest;whiteSpace=wrap;html=1;" vertex="1" parent="11">
                    <mxGeometry y="186" width="170" height="26" as="geometry"/>
                </mxCell>
                <mxCell id="17" value="capacity: int" style="text;strokeColor=none;fillColor=none;align=left;verticalAlign=top;spacingLeft=4;spacingRight=4;overflow=hidden;rotatable=0;points=[[0,0.5],[1,0.5]];portConstraint=eastwest;whiteSpace=wrap;html=1;" vertex="1" parent="1">
                    <mxGeometry x="590" y="240" width="170" height="26" as="geometry"/>
                </mxCell>
                <mxCell id="18" value="width: int" style="text;strokeColor=none;fillColor=none;align=left;verticalAlign=top;spacingLeft=4;spacingRight=4;overflow=hidden;rotatable=0;points=[[0,0.5],[1,0.5]];portConstraint=eastwest;whiteSpace=wrap;html=1;" vertex="1" parent="1">
                    <mxGeometry x="590" y="214" width="170" height="26" as="geometry"/>
                </mxCell>
                <mxCell id="20" value="LOCATION" style="swimlane;fontStyle=0;childLayout=stackLayout;horizontal=1;startSize=26;fillColor=none;horizontalStack=0;resizeParent=1;resizeParentMax=0;resizeLast=0;collapsible=1;marginBottom=0;whiteSpace=wrap;html=1;" vertex="1" parent="1">
                    <mxGeometry x="50" y="440" width="170" height="210" as="geometry"/>
                </mxCell>
                <mxCell id="21" value="id: int autoincrement pk" style="text;strokeColor=none;fillColor=none;align=left;verticalAlign=top;spacingLeft=4;spacingRight=4;overflow=hidden;rotatable=0;points=[[0,0.5],[1,0.5]];portConstraint=eastwest;whiteSpace=wrap;html=1;" vertex="1" parent="20">
                    <mxGeometry y="26" width="170" height="26" as="geometry"/>
                </mxCell>
                <mxCell id="22" value="x:&amp;nbsp; int" style="text;strokeColor=none;fillColor=none;align=left;verticalAlign=top;spacingLeft=4;spacingRight=4;overflow=hidden;rotatable=0;points=[[0,0.5],[1,0.5]];portConstraint=eastwest;whiteSpace=wrap;html=1;" vertex="1" parent="20">
                    <mxGeometry y="52" width="170" height="26" as="geometry"/>
                </mxCell>
                <mxCell id="23" value="y: int" style="text;strokeColor=none;fillColor=none;align=left;verticalAlign=top;spacingLeft=4;spacingRight=4;overflow=hidden;rotatable=0;points=[[0,0.5],[1,0.5]];portConstraint=eastwest;whiteSpace=wrap;html=1;" vertex="1" parent="20">
                    <mxGeometry y="78" width="170" height="82" as="geometry"/>
                </mxCell>
                <mxCell id="24" value="created: timestamptz&lt;div&gt;&lt;span style=&quot;color: rgba(0, 0, 0, 0); font-family: monospace; font-size: 0px; text-wrap: nowrap;&quot;&gt;%3CmxGraphModel%3E%3Croot%3E%3CmxCell%20id%3D%220%22%2F%3E%3CmxCell%20id%3D%221%22%20parent%3D%220%22%2F%3E%3CmxCell%20id%3D%222%22%20value%3D%22%2B%20field%3A%20type%22%20style%3D%22text%3BstrokeColor%3Dnone%3BfillColor%3Dnone%3Balign%3Dleft%3BverticalAlign%3Dtop%3BspacingLeft%3D4%3BspacingRight%3D4%3Boverflow%3Dhidden%3Brotatable%3D0%3Bpoints%3D%5B%5B0%2C0.5%5D%2C%5B1%2C0.5%5D%5D%3BportConstraint%3Deastwest%3BwhiteSpace%3Dwrap%3Bhtml%3D1%3B%22%20vertex%3D%221%22%20parent%3D%221%22%3E%3CmxGeometry%20x%3D%2290%22%20y%3D%22338%22%20width%3D%22140%22%20height%3D%2226%22%20as%3D%22geometry%22%2F%3E%3C%2FmxCell%3E%3C%2Froot%3E%3C%2FmxGraphModel%3E&lt;/span&gt;&lt;br&gt;&lt;/div&gt;" style="text;strokeColor=none;fillColor=none;align=left;verticalAlign=top;spacingLeft=4;spacingRight=4;overflow=hidden;rotatable=0;points=[[0,0.5],[1,0.5]];portConstraint=eastwest;whiteSpace=wrap;html=1;" vertex="1" parent="20">
                    <mxGeometry y="160" width="170" height="26" as="geometry"/>
                </mxCell>
                <mxCell id="28" value="updated:: timestamptz" style="text;strokeColor=none;fillColor=none;align=left;verticalAlign=top;spacingLeft=4;spacingRight=4;overflow=hidden;rotatable=0;points=[[0,0.5],[1,0.5]];portConstraint=eastwest;whiteSpace=wrap;html=1;" vertex="1" parent="20">
                    <mxGeometry y="186" width="170" height="24" as="geometry"/>
                </mxCell>
                <mxCell id="26" value="year: date" style="text;strokeColor=none;fillColor=none;align=left;verticalAlign=top;spacingLeft=4;spacingRight=4;overflow=hidden;rotatable=0;points=[[0,0.5],[1,0.5]];portConstraint=eastwest;whiteSpace=wrap;html=1;" vertex="1" parent="1">
                    <mxGeometry x="50" y="570" width="170" height="26" as="geometry"/>
                </mxCell>
                <mxCell id="27" value="slogan: varchar 250" style="text;strokeColor=none;fillColor=none;align=left;verticalAlign=top;spacingLeft=4;spacingRight=4;overflow=hidden;rotatable=0;points=[[0,0.5],[1,0.5]];portConstraint=eastwest;whiteSpace=wrap;html=1;" vertex="1" parent="1">
                    <mxGeometry x="50" y="544" width="170" height="26" as="geometry"/>
                </mxCell>
                <mxCell id="29" value="PAYMENTS" style="swimlane;fontStyle=0;childLayout=stackLayout;horizontal=1;startSize=26;fillColor=none;horizontalStack=0;resizeParent=1;resizeParentMax=0;resizeLast=0;collapsible=1;marginBottom=0;whiteSpace=wrap;html=1;" vertex="1" parent="1">
                    <mxGeometry x="520" y="450" width="170" height="148" as="geometry"/>
                </mxCell>
                <mxCell id="30" value="id: int autoincrement pk" style="text;strokeColor=none;fillColor=none;align=left;verticalAlign=top;spacingLeft=4;spacingRight=4;overflow=hidden;rotatable=0;points=[[0,0.5],[1,0.5]];portConstraint=eastwest;whiteSpace=wrap;html=1;" vertex="1" parent="29">
                    <mxGeometry y="26" width="170" height="22" as="geometry"/>
                </mxCell>
                <mxCell id="32" value="user_crew_id" style="text;strokeColor=none;fillColor=none;align=left;verticalAlign=top;spacingLeft=4;spacingRight=4;overflow=hidden;rotatable=0;points=[[0,0.5],[1,0.5]];portConstraint=eastwest;whiteSpace=wrap;html=1;" vertex="1" parent="29">
                    <mxGeometry y="48" width="170" height="24" as="geometry"/>
                </mxCell>
                <mxCell id="35" value="location_id" style="text;strokeColor=none;fillColor=none;align=left;verticalAlign=top;spacingLeft=4;spacingRight=4;overflow=hidden;rotatable=0;points=[[0,0.5],[1,0.5]];portConstraint=eastwest;whiteSpace=wrap;html=1;" vertex="1" parent="29">
                    <mxGeometry y="72" width="170" height="26" as="geometry"/>
                </mxCell>
                <mxCell id="33" value="created: timestamptz&lt;div&gt;&lt;span style=&quot;color: rgba(0, 0, 0, 0); font-family: monospace; font-size: 0px; text-wrap: nowrap;&quot;&gt;%3CmxGraphModel%3E%3Croot%3E%3CmxCell%20id%3D%220%22%2F%3E%3CmxCell%20id%3D%221%22%20parent%3D%220%22%2F%3E%3CmxCell%20id%3D%222%22%20value%3D%22%2B%20field%3A%20type%22%20style%3D%22text%3BstrokeColor%3Dnone%3BfillColor%3Dnone%3Balign%3Dleft%3BverticalAlign%3Dtop%3BspacingLeft%3D4%3BspacingRight%3D4%3Boverflow%3Dhidden%3Brotatable%3D0%3Bpoints%3D%5B%5B0%2C0.5%5D%2C%5B1%2C0.5%5D%5D%3BportConstraint%3Deastwest%3BwhiteSpace%3Dwrap%3Bhtml%3D1%3B%22%20vertex%3D%221%22%20parent%3D%221%22%3E%3CmxGeometry%20x%3D%2290%22%20y%3D%22338%22%20width%3D%22140%22%20height%3D%2226%22%20as%3D%22geometry%22%2F%3E%3C%2FmxCell%3E%3C%2Froot%3E%3C%2FmxGraphModel%3E&lt;/span&gt;&lt;br&gt;&lt;/div&gt;" style="text;strokeColor=none;fillColor=none;align=left;verticalAlign=top;spacingLeft=4;spacingRight=4;overflow=hidden;rotatable=0;points=[[0,0.5],[1,0.5]];portConstraint=eastwest;whiteSpace=wrap;html=1;" vertex="1" parent="29">
                    <mxGeometry y="98" width="170" height="26" as="geometry"/>
                </mxCell>
                <mxCell id="34" value="updated:: timestamptz" style="text;strokeColor=none;fillColor=none;align=left;verticalAlign=top;spacingLeft=4;spacingRight=4;overflow=hidden;rotatable=0;points=[[0,0.5],[1,0.5]];portConstraint=eastwest;whiteSpace=wrap;html=1;" vertex="1" parent="29">
                    <mxGeometry y="124" width="170" height="24" as="geometry"/>
                </mxCell>
                <mxCell id="37" value="DRAWS" style="swimlane;fontStyle=0;childLayout=stackLayout;horizontal=1;startSize=26;fillColor=none;horizontalStack=0;resizeParent=1;resizeParentMax=0;resizeLast=0;collapsible=1;marginBottom=0;whiteSpace=wrap;html=1;" vertex="1" parent="1">
                    <mxGeometry x="290" y="450" width="170" height="160" as="geometry"/>
                </mxCell>
                <mxCell id="38" value="id: int autoincrement pk" style="text;strokeColor=none;fillColor=none;align=left;verticalAlign=top;spacingLeft=4;spacingRight=4;overflow=hidden;rotatable=0;points=[[0,0.5],[1,0.5]];portConstraint=eastwest;whiteSpace=wrap;html=1;" vertex="1" parent="37">
                    <mxGeometry y="26" width="170" height="26" as="geometry"/>
                </mxCell>
                <mxCell id="39" value="crew_id" style="text;strokeColor=none;fillColor=none;align=left;verticalAlign=top;spacingLeft=4;spacingRight=4;overflow=hidden;rotatable=0;points=[[0,0.5],[1,0.5]];portConstraint=eastwest;whiteSpace=wrap;html=1;" vertex="1" parent="37">
                    <mxGeometry y="52" width="170" height="26" as="geometry"/>
                </mxCell>
                <mxCell id="40" value="location_id" style="text;strokeColor=none;fillColor=none;align=left;verticalAlign=top;spacingLeft=4;spacingRight=4;overflow=hidden;rotatable=0;points=[[0,0.5],[1,0.5]];portConstraint=eastwest;whiteSpace=wrap;html=1;" vertex="1" parent="37">
                    <mxGeometry y="78" width="170" height="32" as="geometry"/>
                </mxCell>
                <mxCell id="41" value="created: timestamptz&lt;div&gt;&lt;span style=&quot;color: rgba(0, 0, 0, 0); font-family: monospace; font-size: 0px; text-wrap: nowrap;&quot;&gt;%3CmxGraphModel%3E%3Croot%3E%3CmxCell%20id%3D%220%22%2F%3E%3CmxCell%20id%3D%221%22%20parent%3D%220%22%2F%3E%3CmxCell%20id%3D%222%22%20value%3D%22%2B%20field%3A%20type%22%20style%3D%22text%3BstrokeColor%3Dnone%3BfillColor%3Dnone%3Balign%3Dleft%3BverticalAlign%3Dtop%3BspacingLeft%3D4%3BspacingRight%3D4%3Boverflow%3Dhidden%3Brotatable%3D0%3Bpoints%3D%5B%5B0%2C0.5%5D%2C%5B1%2C0.5%5D%5D%3BportConstraint%3Deastwest%3BwhiteSpace%3Dwrap%3Bhtml%3D1%3B%22%20vertex%3D%221%22%20parent%3D%221%22%3E%3CmxGeometry%20x%3D%2290%22%20y%3D%22338%22%20width%3D%22140%22%20height%3D%2226%22%20as%3D%22geometry%22%2F%3E%3C%2FmxCell%3E%3C%2Froot%3E%3C%2FmxGraphModel%3E&lt;/span&gt;&lt;br&gt;&lt;/div&gt;" style="text;strokeColor=none;fillColor=none;align=left;verticalAlign=top;spacingLeft=4;spacingRight=4;overflow=hidden;rotatable=0;points=[[0,0.5],[1,0.5]];portConstraint=eastwest;whiteSpace=wrap;html=1;" vertex="1" parent="37">
                    <mxGeometry y="110" width="170" height="26" as="geometry"/>
                </mxCell>
                <mxCell id="42" value="updated:: timestamptz" style="text;strokeColor=none;fillColor=none;align=left;verticalAlign=top;spacingLeft=4;spacingRight=4;overflow=hidden;rotatable=0;points=[[0,0.5],[1,0.5]];portConstraint=eastwest;whiteSpace=wrap;html=1;" vertex="1" parent="37">
                    <mxGeometry y="136" width="170" height="24" as="geometry"/>
                </mxCell>
                <mxCell id="45" value="USER_CREW" style="swimlane;fontStyle=0;childLayout=stackLayout;horizontal=1;startSize=26;fillColor=none;horizontalStack=0;resizeParent=1;resizeParentMax=0;resizeLast=0;collapsible=1;marginBottom=0;whiteSpace=wrap;html=1;" vertex="1" parent="1">
                    <mxGeometry x="310" y="690" width="170" height="186" as="geometry"/>
                </mxCell>
                <mxCell id="46" value="id: int autoincrement pk" style="text;strokeColor=none;fillColor=none;align=left;verticalAlign=top;spacingLeft=4;spacingRight=4;overflow=hidden;rotatable=0;points=[[0,0.5],[1,0.5]];portConstraint=eastwest;whiteSpace=wrap;html=1;" vertex="1" parent="45">
                    <mxGeometry y="26" width="170" height="26" as="geometry"/>
                </mxCell>
                <mxCell id="47" value="user_id" style="text;strokeColor=none;fillColor=none;align=left;verticalAlign=top;spacingLeft=4;spacingRight=4;overflow=hidden;rotatable=0;points=[[0,0.5],[1,0.5]];portConstraint=eastwest;whiteSpace=wrap;html=1;" vertex="1" parent="45">
                    <mxGeometry y="52" width="170" height="26" as="geometry"/>
                </mxCell>
                <mxCell id="48" value="crew_id" style="text;strokeColor=none;fillColor=none;align=left;verticalAlign=top;spacingLeft=4;spacingRight=4;overflow=hidden;rotatable=0;points=[[0,0.5],[1,0.5]];portConstraint=eastwest;whiteSpace=wrap;html=1;" vertex="1" parent="45">
                    <mxGeometry y="78" width="170" height="32" as="geometry"/>
                </mxCell>
                <mxCell id="51" value="year: date" style="text;strokeColor=none;fillColor=none;align=left;verticalAlign=top;spacingLeft=4;spacingRight=4;overflow=hidden;rotatable=0;points=[[0,0.5],[1,0.5]];portConstraint=eastwest;whiteSpace=wrap;html=1;" vertex="1" parent="45">
                    <mxGeometry y="110" width="170" height="26" as="geometry"/>
                </mxCell>
                <mxCell id="49" value="created: timestamptz&lt;div&gt;&lt;span style=&quot;color: rgba(0, 0, 0, 0); font-family: monospace; font-size: 0px; text-wrap: nowrap;&quot;&gt;%3CmxGraphModel%3E%3Croot%3E%3CmxCell%20id%3D%220%22%2F%3E%3CmxCell%20id%3D%221%22%20parent%3D%220%22%2F%3E%3CmxCell%20id%3D%222%22%20value%3D%22%2B%20field%3A%20type%22%20style%3D%22text%3BstrokeColor%3Dnone%3BfillColor%3Dnone%3Balign%3Dleft%3BverticalAlign%3Dtop%3BspacingLeft%3D4%3BspacingRight%3D4%3Boverflow%3Dhidden%3Brotatable%3D0%3Bpoints%3D%5B%5B0%2C0.5%5D%2C%5B1%2C0.5%5D%5D%3BportConstraint%3Deastwest%3BwhiteSpace%3Dwrap%3Bhtml%3D1%3B%22%20vertex%3D%221%22%20parent%3D%221%22%3E%3CmxGeometry%20x%3D%2290%22%20y%3D%22338%22%20width%3D%22140%22%20height%3D%2226%22%20as%3D%22geometry%22%2F%3E%3C%2FmxCell%3E%3C%2Froot%3E%3C%2FmxGraphModel%3E&lt;/span&gt;&lt;br&gt;&lt;/div&gt;" style="text;strokeColor=none;fillColor=none;align=left;verticalAlign=top;spacingLeft=4;spacingRight=4;overflow=hidden;rotatable=0;points=[[0,0.5],[1,0.5]];portConstraint=eastwest;whiteSpace=wrap;html=1;" vertex="1" parent="45">
                    <mxGeometry y="136" width="170" height="26" as="geometry"/>
                </mxCell>
                <mxCell id="50" value="updated:: timestamptz" style="text;strokeColor=none;fillColor=none;align=left;verticalAlign=top;spacingLeft=4;spacingRight=4;overflow=hidden;rotatable=0;points=[[0,0.5],[1,0.5]];portConstraint=eastwest;whiteSpace=wrap;html=1;" vertex="1" parent="45">
                    <mxGeometry y="162" width="170" height="24" as="geometry"/>
                </mxCell>
            </root>
        </mxGraphModel>
    </diagram>
</mxfile>